Saira-PARAMETRIC-JUN_OPSZ144.ufo
<glyph name="eight" format="2">
  <advance width="682.54348"/>
  <unicode hex="0038"/>
  <outline>
    <contour>
      <point x="341" y="-8" type="curve" smooth="yes"/>
      <point x="565.891" y="-8"/>
      <point x="607.87" y="59.978"/>
      <point x="607.87" y="184" type="curve" smooth="yes"/>
      <point x="607.87" y="302.283"/>
      <point x="564.326" y="330.913"/>
      <point x="482.87" y="349" type="curve"/>
      <point x="482.87" y="353" type="line"/>
      <point x="564.783" y="368.63"/>
      <point x="601.87" y="415"/>
      <point x="601.87" y="515" type="curve" smooth="yes"/>
      <point x="601.87" y="637.565"/>
      <point x="546.978" y="696"/>
      <point x="341" y="696" type="curve" smooth="yes"/>
      <point x="135.022" y="696"/>
      <point x="80.13" y="637.565"/>
      <point x="80.13" y="515" type="curve" smooth="yes"/>
      <point x="80.13" y="415"/>
      <point x="117.217" y="368.63"/>
      <point x="199.13" y="353" type="curve"/>
      <point x="199.13" y="349" type="line"/>
      <point x="117.674" y="330.913"/>
      <point x="74.13" y="302.283"/>
      <point x="74.13" y="184" type="curve" smooth="yes"/>
      <point x="74.13" y="59.978"/>
      <point x="115.565" y="-8"/>
    </contour>
    <contour>
      <point x="341" y="66.217" type="curve" smooth="yes"/>
      <point x="202.348" y="66.217"/>
      <point x="161.761" y="82.435"/>
      <point x="161.761" y="186.783" type="curve" smooth="yes"/>
      <point x="161.761" y="295.413"/>
      <point x="195.065" y="311.435"/>
      <point x="341" y="311.435" type="curve" smooth="yes"/>
      <point x="485.848" y="311.435"/>
      <point x="520.783" y="295.413"/>
      <point x="520.783" y="186.783" type="curve" smooth="yes"/>
      <point x="520.783" y="82.435"/>
      <point x="479.109" y="66.217"/>
    </contour>
    <contour>
      <point x="341" y="384.565" type="curve" smooth="yes"/>
      <point x="199.891" y="384.565"/>
      <point x="167.761" y="407.239"/>
      <point x="167.761" y="502.674" type="curve" smooth="yes"/>
      <point x="167.761" y="599.196"/>
      <point x="196.522" y="622.326"/>
      <point x="341" y="622.326" type="curve" smooth="yes"/>
      <point x="484.935" y="622.326"/>
      <point x="514.783" y="599.196"/>
      <point x="514.783" y="502.674" type="curve" smooth="yes"/>
      <point x="514.783" y="407.239"/>
      <point x="481.565" y="384.565"/>
    </contour>
  </outline>
</glyph>
<glyph name="greater" format="2">
  <advance width="541"/>
  <unicode hex="003E"/>
  <outline>
    <contour>
      <point x="70" y="45" type="line"/>
      <point x="470" y="213.413" type="line"/>
      <point x="470" y="292.043" type="line"/>
      <point x="70" y="461" type="line"/>
      <point x="70" y="390.848" type="line"/>
      <point x="403.522" y="253" type="line"/>
      <point x="70" y="114.609" type="line"/>
    </contour>
  </outline>
</glyph>
<glyph name="A" format="2">
  <advance width="530"/>
  <unicode hex="0041"/>
  <anchor x="265" y="0" name="bottom"/>
  <anchor x="477" y="10" name="ogonek"/>
  <anchor x="265" y="688" name="top"/>
  <outline>
    <contour>
      <point x="9" y="0" type="line"/>
      <point x="88" y="0" type="line"/>
      <point x="262" y="624" type="line"/>
      <point x="267" y="624" type="line"/>
      <point x="441" y="0" type="line"/>
      <point x="521" y="0" type="line"/>
      <point x="325" y="688" type="line"/>
      <point x="205" y="688" type="line"/>
    </contour>
    <contour>
      <point x="106" y="192" type="line"/>
      <point x="423" y="192" type="line"/>
      <point x="399" y="260" type="line"/>
      <point x="130" y="260" type="line"/>
    </contour>
  </outline>
</glyph>
<glyph name="B" format="2">
  <advance width="600"/>
  <unicode hex="0042"/>
  <anchor x="320" y="0" name="bottom"/>
  <anchor x="320" y="688" name="top"/>
  <outline>
    <contour>
      <point x="88" y="0" type="line"/>
      <point x="304" y="0" type="line" smooth="yes"/>
      <point x="478" y="0"/>
      <point x="525" y="40"/>
      <point x="525" y="188" type="curve" smooth="yes"/>
      <point x="525" y="195" type="line" smooth="yes"/>
      <point x="525" y="333"/>
      <point x="477" y="373"/>
      <point x="304" y="373" type="curve" smooth="yes"/>
      <point x="149" y="373" type="line"/>
      <point x="149" y="318" type="line"/>
      <point x="304" y="318" type="line" smooth="yes"/>
      <point x="427" y="318"/>
      <point x="449" y="301"/>
      <point x="449" y="209" type="curve" smooth="yes"/>
      <point x="449" y="174" type="line" smooth="yes"/>
      <point x="449" y="84"/>
      <point x="427" y="68"/>
      <point x="304" y="68" type="curve" smooth="yes"/>
      <point x="130" y="68" type="line"/>
      <point x="164" y="40" type="line"/>
      <point x="164" y="648" type="line"/>
      <point x="130" y="620" type="line"/>
      <point x="299" y="620" type="line" smooth="yes"/>
      <point x="415" y="620"/>
      <point x="435" y="605"/>
      <point x="435" y="520" type="curve" smooth="yes"/>
      <point x="435" y="485" type="line" smooth="yes"/>
      <point x="435" y="398"/>
      <point x="413" y="382"/>
      <point x="290" y="382" type="curve" smooth="yes"/>
      <point x="149" y="382" type="line"/>
      <point x="149" y="327" type="line"/>
      <point x="290" y="327" type="line" smooth="yes"/>
      <point x="463" y="327"/>
      <point x="511" y="366"/>
      <point x="511" y="499" type="curve" smooth="yes"/>
      <point x="511" y="506" type="line" smooth="yes"/>
      <point x="511" y="649"/>
      <point x="465" y="688"/>
      <point x="299" y="688" type="curve" smooth="yes"/>
      <point x="88" y="688" type="line"/>
    </contour>
  </outline>
</glyph>
<glyph name="C" format="2">
  <advance width="516"/>
  <unicode hex="0043"/>
  <anchor x="244" y="0" name="bottom"/>
  <anchor x="244" y="688" name="top"/>
  <outline>
    <contour>
      <point x="300" y="-8" type="curve" smooth="yes"/>
      <point x="346" y="-8"/>
      <point x="402" y="-3"/>
      <point x="432" y="4" type="curve"/>
      <point x="432" y="70" type="line"/>
      <point x="400" y="64"/>
      <point x="349" y="60"/>
      <point x="300" y="60" type="curve" smooth="yes"/>
      <point x="154" y="60"/>
      <point x="143" y="79"/>
      <point x="143" y="310" type="curve" smooth="yes"/>
      <point x="143" y="378" type="line" smooth="yes"/>
      <point x="143" y="609"/>
      <point x="154" y="628"/>
      <point x="300" y="628" type="curve" smooth="yes"/>
      <point x="344" y="628"/>
      <point x="390" y="624"/>
      <point x="429" y="618" type="curve"/>
      <point x="429" y="683" type="line"/>
      <point x="398" y="691"/>
      <point x="344" y="696"/>
      <point x="300" y="696" type="curve" smooth="yes"/>
      <point x="101" y="696"/>
      <point x="67" y="643"/>
      <point x="67" y="349" type="curve" smooth="yes"/>
      <point x="67" y="339" type="line" smooth="yes"/>
      <point x="67" y="45"/>
      <point x="101" y="-8"/>
    </contour>
  </outline>
</glyph>
<glyph name="D" format="2">
  <advance width="580"/>
  <unicode hex="0044"/>
  <anchor x="292" y="0" name="bottom"/>
  <anchor x="149" y="344" name="center"/>
  <anchor x="292" y="688" name="top"/>
  <outline>
    <contour>
      <point x="88" y="0" type="line"/>
      <point x="272" y="0" type="line" smooth="yes"/>
      <point x="479" y="0"/>
      <point x="513" y="47"/>
      <point x="513" y="339" type="curve" smooth="yes"/>
      <point x="513" y="349" type="line" smooth="yes"/>
      <point x="513" y="641"/>
      <point x="479" y="688"/>
      <point x="272" y="688" type="curve" smooth="yes"/>
      <point x="88" y="688" type="line"/>
    </contour>
    <contour>
      <point x="164" y="34" type="line"/>
      <point x="164" y="654" type="line"/>
      <point x="130" y="619" type="line"/>
      <point x="272" y="619" type="line" smooth="yes"/>
      <point x="426" y="619"/>
      <point x="438" y="602"/>
      <point x="438" y="377" type="curve" smooth="yes"/>
      <point x="438" y="311" type="line" smooth="yes"/>
      <point x="438" y="86"/>
      <point x="426" y="68"/>
      <point x="272" y="68" type="curve" smooth="yes"/>
      <point x="130" y="68" type="line"/>
    </contour>
  </outline>
</glyph>
<glyph name="F" format="2">
  <advance width="488"/>
  <unicode hex="0046"/>
  <anchor x="247" y="0" name="bottom"/>
  <anchor x="247" y="688" name="top"/>
  <outline>
    <contour>
      <point x="130" y="371" type="line"/>
      <point x="130" y="303" type="line"/>
      <point x="412" y="303" type="line"/>
      <point x="412" y="371" type="line"/>
    </contour>
    <contour>
      <point x="164" y="0" type="line"/>
      <point x="164" y="654" type="line"/>
      <point x="130" y="620" type="line"/>
      <point x="453" y="620" type="line"/>
      <point x="453" y="688" type="line"/>
      <point x="88" y="688" type="line"/>
      <point x="88" y="0" type="line"/>
    </contour>
  </outline>
</glyph>
<glyph name="G" format="2">
  <advance width="577"/>
  <unicode hex="0047"/>
  <anchor x="293" y="0" name="bottom"/>
  <anchor x="293" y="688" name="top"/>
  <outline>
    <contour>
      <point x="336" y="-8" type="curve" smooth="yes"/>
      <point x="394" y="-8"/>
      <point x="457" y="-1"/>
      <point x="493" y="11" type="curve"/>
      <point x="493" y="367" type="line"/>
      <point x="292" y="367" type="line"/>
      <point x="292" y="303" type="line"/>
      <point x="419" y="303" type="line"/>
      <point x="419" y="65" type="line"/>
      <point x="392" y="62"/>
      <point x="361" y="60"/>
      <point x="329" y="60" type="curve" smooth="yes"/>
      <point x="156" y="60"/>
      <point x="143" y="78"/>
      <point x="143" y="310" type="curve" smooth="yes"/>
      <point x="143" y="378" type="line" smooth="yes"/>
      <point x="143" y="610"/>
      <point x="157" y="628"/>
      <point x="333" y="628" type="curve" smooth="yes"/>
      <point x="390" y="628"/>
      <point x="444" y="624"/>
      <point x="489" y="618" type="curve"/>
      <point x="489" y="683" type="line"/>
      <point x="453" y="691"/>
      <point x="389" y="696"/>
      <point x="335" y="696" type="curve" smooth="yes"/>
      <point x="107" y="696"/>
      <point x="67" y="645"/>
      <point x="67" y="349" type="curve" smooth="yes"/>
      <point x="67" y="339" type="line" smooth="yes"/>
      <point x="67" y="43"/>
      <point x="107" y="-8"/>
    </contour>
  </outline>
</glyph>
<glyph name="H" format="2">
  <advance width="607"/>
  <unicode hex="0048"/>
  <anchor x="304" y="0" name="bottom"/>
  <anchor x="304" y="550" name="center"/>
  <anchor x="304" y="688" name="top"/>
  <anchor x="26" y="688" name="topleft"/>
  <outline>
    <contour>
      <point x="88" y="0" type="line"/>
      <point x="164" y="0" type="line"/>
      <point x="164" y="347" type="line"/>
      <point x="130" y="313" type="line"/>
      <point x="478" y="313" type="line"/>
      <point x="444" y="347" type="line"/>
      <point x="444" y="0" type="line"/>
      <point x="519" y="0" type="line"/>
      <point x="519" y="688" type="line"/>
      <point x="444" y="688" type="line"/>
      <point x="444" y="347" type="line"/>
      <point x="478" y="381" type="line"/>
      <point x="130" y="381" type="line"/>
      <point x="164" y="347" type="line"/>
      <point x="164" y="688" type="line"/>
      <point x="88" y="688" type="line"/>
    </contour>
  </outline>
</glyph>
<glyph name="I" format="2">
  <advance width="252"/>
  <unicode hex="0049"/>
  <anchor x="126" y="0" name="bottom"/>
  <anchor x="239" y="10" name="ogonek"/>
  <anchor x="126" y="688" name="top"/>
  <anchor x="5" y="688" name="topleft"/>
  <outline>
    <contour>
      <point x="88" y="0" type="line"/>
      <point x="164" y="0" type="line"/>
      <point x="164" y="688" type="line"/>
      <point x="88" y="688" type="line"/>
    </contour>
  </outline>
</glyph>
<glyph name="J" format="2">
  <advance width="285"/>
  <unicode hex="004A"/>
  <anchor x="143" y="0" name="bottom"/>
  <anchor x="143" y="688" name="top"/>
  <outline>
    <contour>
      <point x="197" y="688" type="line"/>
      <point x="121" y="688" type="line"/>
      <point x="121" y="141" type="line" smooth="yes"/>
      <point x="121" y="74"/>
      <point x="103" y="61"/>
      <point x="4" y="61" type="curve"/>
      <point x="4" y="-4" type="line"/>
      <point x="155" y="-4"/>
      <point x="197" y="29"/>
      <point x="197" y="148" type="curve" smooth="yes"/>
    </contour>
  </outline>
</glyph>
<glyph name="K" format="2">
  <advance width="555"/>
  <unicode hex="004B"/>
  <anchor x="297" y="0" name="bottom"/>
  <anchor x="297" y="688" name="top"/>
  <outline>
    <contour>
      <point x="159" y="316" type="line"/>
      <point x="263" y="316" type="line"/>
      <point x="457" y="0" type="line"/>
      <point x="546" y="0" type="line"/>
      <point x="327" y="350" type="line"/>
      <point x="537" y="688" type="line"/>
      <point x="449" y="688" type="line"/>
      <point x="263" y="384" type="line"/>
      <point x="159" y="384" type="line"/>
    </contour>
    <contour>
      <point x="88" y="0" type="line"/>
      <point x="164" y="0" type="line"/>
      <point x="164" y="688" type="line"/>
      <point x="88" y="688" type="line"/>
    </contour>
  </outline>
</glyph>
<glyph name="L" format="2">
  <advance width="461"/>
  <unicode hex="004C"/>
  <anchor x="235" y="0" name="bottom"/>
  <anchor x="235" y="344" name="center"/>
  <anchor x="235" y="688" name="top"/>
  <anchor x="443" y="688" name="topright"/>
  <outline>
    <contour>
      <point x="88" y="0" type="line"/>
      <point x="443" y="0" type="line"/>
      <point x="443" y="68" type="line"/>
      <point x="130" y="68" type="line"/>
      <point x="164" y="34" type="line"/>
      <point x="164" y="688" type="line"/>
      <point x="88" y="688" type="line"/>
    </contour>
  </outline>
</glyph>
<glyph name="M" format="2">
  <advance width="704"/>
  <unicode hex="004D"/>
  <outline>
    <contour>
      <point x="88" y="0" type="line"/>
      <point x="164" y="0" type="line"/>
      <point x="164" y="589" type="line"/>
      <point x="309" y="0" type="line"/>
      <point x="395" y="0" type="line"/>
      <point x="540" y="589" type="line"/>
      <point x="540" y="0" type="line"/>
      <point x="616" y="0" type="line"/>
      <point x="616" y="688" type="line"/>
      <point x="493" y="688" type="line"/>
      <point x="352" y="103" type="line"/>
      <point x="211" y="688" type="line"/>
      <point x="88" y="688" type="line"/>
    </contour>
  </outline>
</glyph>
<glyph name="N" format="2">
  <advance width="612"/>
  <unicode hex="004E"/>
  <anchor x="300" y="0" name="bottom"/>
  <anchor x="300" y="688" name="top"/>
  <outline>
    <contour>
      <point x="88" y="0" type="line"/>
      <point x="164" y="0" type="line"/>
      <point x="164" y="546" type="line"/>
      <point x="443" y="0" type="line"/>
      <point x="524" y="0" type="line"/>
      <point x="524" y="688" type="line"/>
      <point x="448" y="688" type="line"/>
      <point x="448" y="142" type="line"/>
      <point x="169" y="688" type="line"/>
      <point x="88" y="688" type="line"/>
    </contour>
  </outline>
</glyph>
<glyph name="O" format="2">
  <advance width="601"/>
  <unicode hex="004F"/>
  <anchor x="301" y="-2" name="bottom"/>
  <anchor x="301" y="344" name="center"/>
  <anchor x="539" y="10" name="ogonek"/>
  <anchor x="301" y="688" name="top"/>
  <anchor x="23" y="688" name="topleft"/>
  <anchor x="578" y="688" name="topright"/>
  <outline>
    <contour>
      <point x="301" y="-8" type="curve" smooth="yes"/>
      <point x="499" y="-8"/>
      <point x="534" y="44"/>
      <point x="534" y="339" type="curve" smooth="yes"/>
      <point x="534" y="349" type="line" smooth="yes"/>
      <point x="534" y="644"/>
      <point x="499" y="696"/>
      <point x="301" y="696" type="curve" smooth="yes"/>
      <point x="102" y="696"/>
      <point x="67" y="644"/>
      <point x="67" y="349" type="curve" smooth="yes"/>
      <point x="67" y="339" type="line" smooth="yes"/>
      <point x="67" y="44"/>
      <point x="102" y="-8"/>
    </contour>
    <contour>
      <point x="301" y="60" type="curve" smooth="yes"/>
      <point x="155" y="60"/>
      <point x="143" y="80"/>
      <point x="143" y="309" type="curve" smooth="yes"/>
      <point x="143" y="379" type="line" smooth="yes"/>
      <point x="143" y="608"/>
      <point x="155" y="628"/>
      <point x="301" y="628" type="curve" smooth="yes"/>
      <point x="446" y="628"/>
      <point x="458" y="608"/>
      <point x="458" y="379" type="curve" smooth="yes"/>
      <point x="458" y="309" type="line" smooth="yes"/>
      <point x="458" y="80"/>
      <point x="446" y="60"/>
    </contour>
  </outline>
</glyph>
<glyph name="P" format="2">
  <advance width="504"/>
  <unicode hex="0050"/>
  <anchor x="254" y="0" name="bottom"/>
  <anchor x="254" y="688" name="top"/>
  <outline>
    <contour>
      <point x="88" y="0" type="line"/>
      <point x="164" y="0" type="line"/>
      <point x="164" y="648" type="line"/>
      <point x="130" y="620" type="line"/>
      <point x="267" y="620" type="line" smooth="yes"/>
      <point x="392" y="620"/>
      <point x="402" y="609"/>
      <point x="402" y="486" type="curve" smooth="yes"/>
      <point x="402" y="451" type="line" smooth="yes"/>
      <point x="402" y="328"/>
      <point x="392" y="318"/>
      <point x="267" y="318" type="curve" smooth="yes"/>
      <point x="148" y="318" type="line"/>
      <point x="148" y="250" type="line"/>
      <point x="264" y="250" type="line" smooth="yes"/>
      <point x="445" y="250"/>
      <point x="478" y="284"/>
      <point x="478" y="465" type="curve" smooth="yes"/>
      <point x="478" y="472" type="line" smooth="yes"/>
      <point x="478" y="654"/>
      <point x="445" y="688"/>
      <point x="264" y="688" type="curve" smooth="yes"/>
      <point x="88" y="688" type="line"/>
    </contour>
  </outline>
</glyph>
<glyph name="R" format="2">
  <advance width="555"/>
  <unicode hex="0052"/>
  <anchor x="279" y="0" name="bottom"/>
  <anchor x="279" y="688" name="top"/>
  <outline>
    <contour>
      <point x="88" y="0" type="line"/>
      <point x="164" y="0" type="line"/>
      <point x="164" y="648" type="line"/>
      <point x="130" y="620" type="line"/>
      <point x="270" y="620" type="line" smooth="yes"/>
      <point x="405" y="620"/>
      <point x="412" y="614"/>
      <point x="412" y="495" type="curve" smooth="yes"/>
      <point x="412" y="462" type="line" smooth="yes"/>
      <point x="412" y="344"/>
      <point x="405" y="338"/>
      <point x="270" y="338" type="curve" smooth="yes"/>
      <point x="149" y="338" type="line"/>
      <point x="149" y="270" type="line"/>
      <point x="267" y="270" type="line" smooth="yes"/>
      <point x="453" y="270"/>
      <point x="488" y="302"/>
      <point x="488" y="475" type="curve" smooth="yes"/>
      <point x="488" y="482" type="line" smooth="yes"/>
      <point x="488" y="656"/>
      <point x="453" y="688"/>
      <point x="267" y="688" type="curve" smooth="yes"/>
      <point x="88" y="688" type="line"/>
    </contour>
    <contour>
      <point x="416" y="0" type="line"/>
      <point x="498" y="0" type="line"/>
      <point x="387" y="290" type="line"/>
      <point x="309" y="290" type="line"/>
    </contour>
  </outline>
</glyph>
<glyph name="S" format="2">
  <advance width="547"/>
  <unicode hex="0053"/>
  <anchor x="273" y="0" name="bottom"/>
  <anchor x="273" y="688" name="top"/>
  <outline>
    <contour>
      <point x="275" y="-8" type="curve" smooth="yes"/>
      <point x="435" y="-8"/>
      <point x="485" y="40"/>
      <point x="485" y="196" type="curve" smooth="yes"/>
      <point x="485" y="324"/>
      <point x="455" y="365"/>
      <point x="353" y="376" type="curve" smooth="yes"/>
      <point x="210" y="392" type="line" smooth="yes"/>
      <point x="147" y="400"/>
      <point x="138" y="414"/>
      <point x="138" y="496" type="curve" smooth="yes"/>
      <point x="138" y="605"/>
      <point x="160" y="628"/>
      <point x="270" y="628" type="curve" smooth="yes"/>
      <point x="329" y="628"/>
      <point x="403" y="621"/>
      <point x="457" y="611" type="curve"/>
      <point x="457" y="677" type="line"/>
      <point x="394" y="688"/>
      <point x="319" y="696"/>
      <point x="271" y="696" type="curve" smooth="yes"/>
      <point x="115" y="696"/>
      <point x="62" y="645"/>
      <point x="62" y="498" type="curve" smooth="yes"/>
      <point x="62" y="375"/>
      <point x="95" y="332"/>
      <point x="191" y="322" type="curve" smooth="yes"/>
      <point x="335" y="306" type="line" smooth="yes"/>
      <point x="400" y="298"/>
      <point x="409" y="286"/>
      <point x="409" y="196" type="curve" smooth="yes"/>
      <point x="409" y="84"/>
      <point x="385" y="60"/>
      <point x="274" y="60" type="curve" smooth="yes"/>
      <point x="209" y="60"/>
      <point x="128" y="67"/>
      <point x="68" y="77" type="curve"/>
      <point x="68" y="11" type="line"/>
      <point x="142" y="-1"/>
      <point x="223" y="-8"/>
    </contour>
  </outline>
</glyph>
<glyph name="T" format="2">
  <advance width="446"/>
  <unicode hex="0054"/>
  <anchor x="223" y="0" name="bottom"/>
  <anchor x="223" y="344" name="center"/>
  <anchor x="223" y="688" name="top"/>
  <outline>
    <contour>
      <point x="185" y="0" type="line"/>
      <point x="261" y="0" type="line"/>
      <point x="261" y="652" type="line"/>
      <point x="228" y="618" type="line"/>
      <point x="437" y="618" type="line"/>
      <point x="437" y="688" type="line"/>
      <point x="9" y="688" type="line"/>
      <point x="9" y="618" type="line"/>
      <point x="217" y="618" type="line"/>
      <point x="185" y="652" type="line"/>
    </contour>
  </outline>
</glyph>
<glyph name="U" format="2">
  <advance width="602"/>
  <unicode hex="0055"/>
  <anchor x="301" y="0" name="bottom"/>
  <anchor x="537" y="10" name="ogonek"/>
  <anchor x="301" y="688" name="top"/>
  <anchor x="576" y="688" name="topright"/>
  <outline>
    <contour>
      <point x="300" y="-8" type="curve" smooth="yes"/>
      <point x="481" y="-8"/>
      <point x="518" y="48"/>
      <point x="518" y="294" type="curve" smooth="yes"/>
      <point x="518" y="688" type="line"/>
      <point x="442" y="688" type="line"/>
      <point x="442" y="267" type="line" smooth="yes"/>
      <point x="442" y="86"/>
      <point x="429" y="62"/>
      <point x="301" y="62" type="curve" smooth="yes"/>
      <point x="173" y="62"/>
      <point x="160" y="85"/>
      <point x="160" y="265" type="curve" smooth="yes"/>
      <point x="160" y="688" type="line"/>
      <point x="84" y="688" type="line"/>
      <point x="84" y="292" type="line" smooth="yes"/>
      <point x="84" y="48"/>
      <point x="120" y="-8"/>
    </contour>
  </outline>
</glyph>
<glyph name="V" format="2">
  <advance width="483"/>
  <unicode hex="0056"/>
  <outline>
    <contour>
      <point x="187" y="0" type="line"/>
      <point x="298" y="0" type="line"/>
      <point x="474" y="688" type="line"/>
      <point x="396" y="688" type="line"/>
      <point x="242" y="77" type="line"/>
      <point x="87" y="688" type="line"/>
      <point x="9" y="688" type="line"/>
    </contour>
  </outline>
</glyph>
<glyph name="W" format="2">
  <advance width="620"/>
  <unicode hex="0057"/>
  <outline>
    <contour>
      <point x="113" y="0" type="line"/>
      <point x="226" y="0" type="line"/>
      <point x="310" y="582" type="line"/>
      <point x="394" y="0" type="line"/>
      <point x="507" y="0" type="line"/>
      <point x="611" y="688" type="line"/>
      <point x="535" y="688" type="line"/>
      <point x="450" y="98" type="line"/>
      <point x="361" y="688" type="line"/>
      <point x="259" y="688" type="line"/>
      <point x="170" y="98" type="line"/>
      <point x="85" y="688" type="line"/>
      <point x="9" y="688" type="line"/>
    </contour>
  </outline>
</glyph>
<glyph name="X" format="2">
  <advance width="510"/>
  <unicode hex="0058"/>
  <anchor x="260" y="0" name="bottom"/>
  <anchor x="260" y="510" name="top"/>
  <outline>
    <contour>
      <point x="406" y="0" type="line"/>
      <point x="492" y="0" type="line"/>
      <point x="112" y="688" type="line"/>
      <point x="26" y="688" type="line"/>
    </contour>
    <contour>
      <point x="18" y="0" type="line"/>
      <point x="103" y="0" type="line"/>
      <point x="483" y="688" type="line"/>
      <point x="398" y="688" type="line"/>
    </contour>
  </outline>
</glyph>
<glyph name="Y" format="2">
  <advance width="466"/>
  <unicode hex="0059"/>
  <anchor x="235" y="0" name="bottom"/>
  <anchor x="235" y="688" name="top"/>
  <anchor x="36" y="688" name="topleft"/>
  <outline>
    <contour>
      <point x="195" y="0" type="line"/>
      <point x="271" y="0" type="line"/>
      <point x="271" y="301" type="line"/>
      <point x="255" y="228" type="line"/>
      <point x="457" y="688" type="line"/>
      <point x="372" y="688" type="line"/>
      <point x="233" y="343" type="line"/>
      <point x="94" y="688" type="line"/>
      <point x="9" y="688" type="line"/>
      <point x="212" y="228" type="line"/>
      <point x="195" y="301" type="line"/>
    </contour>
  </outline>
</glyph>
<glyph name="a" format="2">
  <advance width="501"/>
  <unicode hex="0061"/>
  <anchor x="252" y="0" name="bottom"/>
  <anchor x="479" y="10" name="ogonek"/>
  <anchor x="252" y="495" name="top"/>
  <outline>
    <contour>
      <point x="200" y="-8" type="curve" smooth="yes"/>
      <point x="276" y="-8"/>
      <point x="321" y="15"/>
      <point x="341" y="65" type="curve"/>
      <point x="344" y="65" type="line"/>
      <point x="352" y="0" type="line"/>
      <point x="417" y="0" type="line"/>
      <point x="417" y="269" type="line" smooth="yes"/>
      <point x="417" y="466"/>
      <point x="388" y="502"/>
      <point x="234" y="502" type="curve" smooth="yes"/>
      <point x="177" y="502"/>
      <point x="131" y="498"/>
      <point x="80" y="489" type="curve"/>
      <point x="80" y="426" type="line"/>
      <point x="123" y="434"/>
      <point x="171" y="437"/>
      <point x="234" y="437" type="curve" smooth="yes"/>
      <point x="334" y="437"/>
      <point x="341" y="427"/>
      <point x="341" y="286" type="curve" smooth="yes"/>
      <point x="341" y="234" type="line" smooth="yes"/>
      <point x="341" y="90"/>
      <point x="319" y="57"/>
      <point x="221" y="57" type="curve" smooth="yes"/>
      <point x="146" y="57"/>
      <point x="132" y="71"/>
      <point x="132" y="145" type="curve" smooth="yes"/>
      <point x="132" y="214"/>
      <point x="150" y="230"/>
      <point x="226" y="229" type="curve" smooth="yes"/>
      <point x="354" y="229" type="line"/>
      <point x="354" y="294" type="line"/>
      <point x="215" y="294" type="line" smooth="yes"/>
      <point x="97" y="295"/>
      <point x="55" y="254"/>
      <point x="56" y="139" type="curve" smooth="yes"/>
      <point x="55" y="33"/>
      <point x="96" y="-8"/>
    </contour>
  </outline>
</glyph>
<glyph name="b" format="2">
  <advance width="524"/>
  <unicode hex="0062"/>
  <anchor x="288" y="0" name="bottom"/>
  <anchor x="138" y="576" name="center"/>
  <anchor x="288" y="495" name="top"/>
  <outline>
    <contour>
      <point x="310" y="-8" type="curve" smooth="yes"/>
      <point x="438" y="-8"/>
      <point x="462" y="32"/>
      <point x="462" y="243" type="curve" smooth="yes"/>
      <point x="462" y="251" type="line" smooth="yes"/>
      <point x="462" y="461"/>
      <point x="436" y="502"/>
      <point x="310" y="502" type="curve" smooth="yes"/>
      <point x="231" y="502"/>
      <point x="188" y="481"/>
      <point x="168" y="432" type="curve"/>
      <point x="164" y="432" type="line"/>
      <point x="164" y="721" type="line"/>
      <point x="88" y="721" type="line"/>
      <point x="88" y="0" type="line"/>
      <point x="155" y="0" type="line"/>
      <point x="164" y="63" type="line"/>
      <point x="168" y="63" type="line"/>
      <point x="188" y="14"/>
      <point x="232" y="-8"/>
    </contour>
    <contour>
      <point x="290" y="57" type="curve" smooth="yes"/>
      <point x="187" y="57"/>
      <point x="164" y="90"/>
      <point x="164" y="237" type="curve" smooth="yes"/>
      <point x="164" y="258" type="line" smooth="yes"/>
      <point x="164" y="404"/>
      <point x="187" y="437"/>
      <point x="290" y="437" type="curve" smooth="yes"/>
      <point x="372" y="437"/>
      <point x="386" y="416"/>
      <point x="386" y="298" type="curve" smooth="yes"/>
      <point x="386" y="196" type="line" smooth="yes"/>
      <point x="386" y="78"/>
      <point x="371" y="57"/>
    </contour>
  </outline>
</glyph>
<glyph name="d" format="2">
  <advance width="524"/>
  <unicode hex="0064"/>
  <anchor x="310" y="0" name="bottom"/>
  <anchor x="464" y="594" name="center"/>
  <anchor x="310" y="510" name="top"/>
  <anchor x="519" y="743" name="topright"/>
  <outline>
    <contour>
      <point x="214" y="-8" type="curve" smooth="yes"/>
      <point x="292" y="-8"/>
      <point x="336" y="14"/>
      <point x="356" y="63" type="curve"/>
      <point x="360" y="63" type="line"/>
      <point x="369" y="0" type="line"/>
      <point x="436" y="0" type="line"/>
      <point x="436" y="721" type="line"/>
      <point x="360" y="721" type="line"/>
      <point x="360" y="432" type="line"/>
      <point x="356" y="432" type="line"/>
      <point x="336" y="481"/>
      <point x="293" y="502"/>
      <point x="214" y="502" type="curve" smooth="yes"/>
      <point x="88" y="502"/>
      <point x="62" y="461"/>
      <point x="62" y="251" type="curve" smooth="yes"/>
      <point x="62" y="243" type="line" smooth="yes"/>
      <point x="62" y="32"/>
      <point x="86" y="-8"/>
    </contour>
    <contour>
      <point x="234" y="57" type="curve" smooth="yes"/>
      <point x="153" y="57"/>
      <point x="138" y="78"/>
      <point x="138" y="196" type="curve" smooth="yes"/>
      <point x="138" y="298" type="line" smooth="yes"/>
      <point x="138" y="416"/>
      <point x="152" y="437"/>
      <point x="234" y="437" type="curve" smooth="yes"/>
      <point x="337" y="437"/>
      <point x="360" y="404"/>
      <point x="360" y="258" type="curve" smooth="yes"/>
      <point x="360" y="237" type="line" smooth="yes"/>
      <point x="360" y="90"/>
      <point x="337" y="57"/>
    </contour>
  </outline>
</glyph>
<glyph name="e" format="2">
  <advance width="482"/>
  <unicode hex="0065"/>
  <anchor x="241" y="0" name="bottom"/>
  <anchor x="432" y="10" name="ogonek"/>
  <anchor x="241" y="495" name="top"/>
  <outline>
    <contour>
      <point x="246" y="-8" type="curve" smooth="yes"/>
      <point x="306" y="-8"/>
      <point x="377" y="0"/>
      <point x="415" y="10" type="curve"/>
      <point x="415" y="73" type="line"/>
      <point x="372" y="64"/>
      <point x="303" y="57"/>
      <point x="251" y="57" type="curve" smooth="yes"/>
      <point x="146" y="57"/>
      <point x="138" y="70"/>
      <point x="138" y="225" type="curve" smooth="yes"/>
      <point x="138" y="269" type="line" smooth="yes"/>
      <point x="138" y="425"/>
      <point x="145" y="437"/>
      <point x="246" y="437" type="curve" smooth="yes"/>
      <point x="343" y="437"/>
      <point x="351" y="425"/>
      <point x="351" y="270" type="curve" smooth="yes"/>
      <point x="351" y="245" type="line"/>
      <point x="386" y="276" type="line"/>
      <point x="99" y="276" type="line"/>
      <point x="99" y="211" type="line"/>
      <point x="426" y="211" type="line"/>
      <point x="426" y="251" type="line" smooth="yes"/>
      <point x="426" y="465"/>
      <point x="399" y="502"/>
      <point x="246" y="502" type="curve" smooth="yes"/>
      <point x="89" y="502"/>
      <point x="62" y="465"/>
      <point x="62" y="251" type="curve" smooth="yes"/>
      <point x="62" y="243" type="line" smooth="yes"/>
      <point x="62" y="30"/>
      <point x="89" y="-8"/>
    </contour>
  </outline>
</glyph>
<glyph name="f" format="2">
  <advance width="302"/>
  <unicode hex="0066"/>
  <anchor x="160" y="0" name="bottom"/>
  <anchor x="160" y="721" name="top"/>
  <outline>
    <contour>
      <point x="106" y="0" type="line"/>
      <point x="182" y="0" type="line"/>
      <point x="182" y="580" type="line" smooth="yes"/>
      <point x="182" y="644"/>
      <point x="201" y="656"/>
      <point x="298" y="656" type="curve"/>
      <point x="298" y="721" type="line"/>
      <point x="148" y="721"/>
      <point x="106" y="689"/>
      <point x="106" y="573" type="curve" smooth="yes"/>
    </contour>
    <contour>
      <point x="18" y="430" type="line"/>
      <point x="122" y="430" type="line"/>
      <point x="122" y="495" type="line"/>
      <point x="18" y="495" type="line"/>
    </contour>
    <contour>
      <point x="167" y="430" type="line"/>
      <point x="298" y="430" type="line"/>
      <point x="298" y="495" type="line"/>
      <point x="167" y="495" type="line"/>
    </contour>
  </outline>
</glyph>
<glyph name="g" format="2">
  <advance width="524"/>
  <unicode hex="0067"/>
  <anchor x="164" y="-194" name="bottom"/>
  <anchor x="386" y="-81" name="center"/>
  <anchor x="164" y="495" name="top"/>
  <outline>
    <contour>
      <point x="252" y="-200" type="curve" smooth="yes"/>
      <point x="407" y="-200"/>
      <point x="436" y="-162"/>
      <point x="436" y="34" type="curve" smooth="yes"/>
      <point x="436" y="495" type="line"/>
      <point x="368" y="495" type="line"/>
      <point x="360" y="432" type="line"/>
      <point x="356" y="432" type="line"/>
      <point x="336" y="481"/>
      <point x="291" y="502"/>
      <point x="213" y="502" type="curve" smooth="yes"/>
      <point x="86" y="502"/>
      <point x="62" y="462"/>
      <point x="62" y="251" type="curve" smooth="yes"/>
      <point x="62" y="243" type="line" smooth="yes"/>
      <point x="62" y="31"/>
      <point x="86" y="-8"/>
      <point x="213" y="-8" type="curve" smooth="yes"/>
      <point x="291" y="-8"/>
      <point x="336" y="14"/>
      <point x="356" y="63" type="curve"/>
      <point x="360" y="63" type="line"/>
      <point x="360" y="17" type="line" smooth="yes"/>
      <point x="360" y="-124"/>
      <point x="352" y="-135"/>
      <point x="252" y="-135" type="curve" smooth="yes"/>
      <point x="192" y="-135"/>
      <point x="143" y="-131"/>
      <point x="98" y="-123" type="curve"/>
      <point x="98" y="-186" type="line"/>
      <point x="153" y="-195"/>
      <point x="203" y="-200"/>
    </contour>
    <contour>
      <point x="233" y="57" type="curve" smooth="yes"/>
      <point x="151" y="57"/>
      <point x="138" y="78"/>
      <point x="138" y="196" type="curve" smooth="yes"/>
      <point x="138" y="298" type="line" smooth="yes"/>
      <point x="138" y="417"/>
      <point x="151" y="437"/>
      <point x="233" y="437" type="curve" smooth="yes"/>
      <point x="337" y="437"/>
      <point x="360" y="404"/>
      <point x="360" y="258" type="curve" smooth="yes"/>
      <point x="360" y="237" type="line" smooth="yes"/>
      <point x="360" y="91"/>
      <point x="337" y="57"/>
    </contour>
  </outline>
</glyph>
<glyph name="h" format="2">
  <advance width="530"/>
  <unicode hex="0068"/>
  <anchor x="262" y="0" name="bottom"/>
  <anchor x="262" y="495" name="top"/>
  <outline>
    <contour>
      <point x="88" y="0" type="line"/>
      <point x="164" y="0" type="line"/>
      <point x="164" y="311" type="line" smooth="yes"/>
      <point x="164" y="411"/>
      <point x="188" y="437"/>
      <point x="281" y="437" type="curve" smooth="yes"/>
      <point x="356" y="437"/>
      <point x="370" y="422"/>
      <point x="370" y="339" type="curve" smooth="yes"/>
      <point x="370" y="0" type="line"/>
      <point x="446" y="0" type="line"/>
      <point x="446" y="350" type="line" smooth="yes"/>
      <point x="445" y="461"/>
      <point x="406" y="502"/>
      <point x="305" y="502" type="curve" smooth="yes"/>
      <point x="227" y="502"/>
      <point x="183" y="482"/>
      <point x="164" y="440" type="curve"/>
      <point x="164" y="721" type="line"/>
      <point x="88" y="721" type="line"/>
    </contour>
  </outline>
</glyph>
<glyph name="i" format="2">
  <advance width="252"/>
  <unicode hex="0069"/>
  <anchor x="141" y="0" name="bottom"/>
  <anchor x="167" y="0" name="ogonek"/>
  <anchor x="126" y="716" name="top"/>
  <outline>
    <contour>
      <point x="88" y="0" type="line"/>
      <point x="164" y="0" type="line"/>
      <point x="164" y="495" type="line"/>
      <point x="88" y="495" type="line"/>
    </contour>
    <contour>
      <point x="82" y="628" type="line"/>
      <point x="170" y="628" type="line"/>
      <point x="170" y="716" type="line"/>
      <point x="82" y="716" type="line"/>
    </contour>
  </outline>
</glyph>
<glyph name="j" format="2">
  <advance width="252"/>
  <unicode hex="006A"/>
  <anchor x="126" y="-200" name="bottom"/>
  <anchor x="126" y="716" name="top"/>
  <outline>
    <contour>
      <point x="164" y="495" type="line"/>
      <point x="88" y="495" type="line"/>
      <point x="88" y="-59" type="line" smooth="yes"/>
      <point x="88" y="-123"/>
      <point x="69" y="-135"/>
      <point x="-28" y="-135" type="curve"/>
      <point x="-28" y="-200" type="line"/>
      <point x="122" y="-200"/>
      <point x="164" y="-168"/>
      <point x="164" y="-52" type="curve" smooth="yes"/>
    </contour>
    <contour>
      <point x="82" y="628" type="line"/>
      <point x="170" y="628" type="line"/>
      <point x="170" y="716" type="line"/>
      <point x="82" y="716" type="line"/>
    </contour>
  </outline>
</glyph>
<glyph name="k" format="2">
  <advance width="482"/>
  <unicode hex="006B"/>
  <anchor x="275" y="0" name="bottom"/>
  <anchor x="275" y="495" name="top"/>
  <outline>
    <contour>
      <point x="164" y="220" type="line"/>
      <point x="263" y="220" type="line"/>
      <point x="383" y="0" type="line"/>
      <point x="469" y="0" type="line"/>
      <point x="330" y="252" type="line"/>
      <point x="466" y="495" type="line"/>
      <point x="380" y="495" type="line"/>
      <point x="262" y="285" type="line"/>
      <point x="164" y="285" type="line"/>
    </contour>
    <contour>
      <point x="88" y="0" type="line"/>
      <point x="164" y="0" type="line"/>
      <point x="164" y="721" type="line"/>
      <point x="88" y="721" type="line"/>
    </contour>
  </outline>
</glyph>
<glyph name="l" format="2">
  <advance width="252"/>
  <unicode hex="006C"/>
  <anchor x="126" y="0" name="bottom"/>
  <anchor x="126" y="361" name="center"/>
  <anchor x="126" y="721" name="top"/>
  <anchor x="164" y="721" name="topright"/>
  <outline>
    <contour>
      <point x="88" y="0" type="line"/>
      <point x="164" y="0" type="line"/>
      <point x="164" y="721" type="line"/>
      <point x="88" y="721" type="line"/>
    </contour>
  </outline>
</glyph>
<glyph name="m" format="2">
  <advance width="812"/>
  <unicode hex="006D"/>
  <anchor x="262" y="0" name="bottom"/>
  <anchor x="262" y="495" name="top"/>
  <outline>
    <contour>
      <point x="88" y="0" type="line"/>
      <point x="164" y="0" type="line"/>
      <point x="164" y="291" type="line" smooth="yes"/>
      <point x="164" y="409"/>
      <point x="186" y="437"/>
      <point x="282" y="437" type="curve" smooth="yes"/>
      <point x="356" y="437"/>
      <point x="370" y="420"/>
      <point x="370" y="323" type="curve" smooth="yes"/>
      <point x="370" y="0" type="line"/>
      <point x="446" y="0" type="line"/>
      <point x="446" y="291" type="line" smooth="yes"/>
      <point x="445" y="409"/>
      <point x="468" y="437"/>
      <point x="564" y="437" type="curve" smooth="yes"/>
      <point x="638" y="437"/>
      <point x="652" y="420"/>
      <point x="652" y="323" type="curve" smooth="yes"/>
      <point x="652" y="0" type="line"/>
      <point x="728" y="0" type="line"/>
      <point x="728" y="334" type="line" smooth="yes"/>
      <point x="728" y="464"/>
      <point x="696" y="502"/>
      <point x="587" y="502" type="curve" smooth="yes"/>
      <point x="508" y="502"/>
      <point x="463" y="480"/>
      <point x="439" y="432" type="curve"/>
      <point x="435" y="432" type="line"/>
      <point x="417" y="485"/>
      <point x="378" y="502"/>
      <point x="305" y="502" type="curve" smooth="yes"/>
      <point x="228" y="502"/>
      <point x="184" y="480"/>
      <point x="165" y="432" type="curve"/>
      <point x="161" y="432" type="line"/>
      <point x="153" y="495" type="line"/>
      <point x="88" y="495" type="line"/>
    </contour>
  </outline>
</glyph>
<glyph name="o" format="2">
  <advance width="497"/>
  <unicode hex="006F"/>
  <anchor x="248" y="0" name="bottom"/>
  <anchor x="248" y="247" name="center"/>
  <anchor x="450" y="10" name="ogonek"/>
  <anchor x="248" y="495" name="top"/>
  <anchor x="482" y="495" name="topright"/>
  <outline>
    <contour>
      <point x="248" y="-8" type="curve" smooth="yes"/>
      <point x="406" y="-8"/>
      <point x="435" y="30"/>
      <point x="435" y="243" type="curve" smooth="yes"/>
      <point x="435" y="251" type="line" smooth="yes"/>
      <point x="435" y="465"/>
      <point x="406" y="502"/>
      <point x="248" y="502" type="curve" smooth="yes"/>
      <point x="89" y="502"/>
      <point x="62" y="460"/>
      <point x="62" y="251" type="curve" smooth="yes"/>
      <point x="62" y="243" type="line" smooth="yes"/>
      <point x="62" y="30"/>
      <point x="89" y="-8"/>
    </contour>
    <contour>
      <point x="248" y="57" type="curve" smooth="yes"/>
      <point x="146" y="57"/>
      <point x="138" y="68"/>
      <point x="138" y="224" type="curve" smooth="yes"/>
      <point x="138" y="271" type="line" smooth="yes"/>
      <point x="138" y="427"/>
      <point x="146" y="437"/>
      <point x="248" y="437" type="curve" smooth="yes"/>
      <point x="351" y="437"/>
      <point x="359" y="427"/>
      <point x="359" y="271" type="curve" smooth="yes"/>
      <point x="359" y="224" type="line" smooth="yes"/>
      <point x="359" y="68"/>
      <point x="351" y="57"/>
    </contour>
  </outline>
</glyph>
<glyph name="p" format="2">
  <advance width="524"/>
  <unicode hex="0070"/>
  <anchor x="278" y="0" name="bottom"/>
  <anchor x="138" y="-66" name="center"/>
  <anchor x="278" y="510" name="top"/>
  <outline>
    <contour>
      <point x="88" y="-200" type="line"/>
      <point x="164" y="-200" type="line"/>
      <point x="164" y="62" type="line"/>
      <point x="168" y="62" type="line"/>
      <point x="188" y="13"/>
      <point x="232" y="-8"/>
      <point x="310" y="-8" type="curve" smooth="yes"/>
      <point x="439" y="-8"/>
      <point x="462" y="29"/>
      <point x="462" y="243" type="curve" smooth="yes"/>
      <point x="462" y="251" type="line" smooth="yes"/>
      <point x="462" y="464"/>
      <point x="439" y="502"/>
      <point x="310" y="502" type="curve" smooth="yes"/>
      <point x="232" y="502"/>
      <point x="188" y="480"/>
      <point x="168" y="431" type="curve"/>
      <point x="164" y="431" type="line"/>
      <point x="155" y="494" type="line"/>
      <point x="88" y="494" type="line"/>
    </contour>
    <contour>
      <point x="290" y="57" type="curve" smooth="yes"/>
      <point x="187" y="57"/>
      <point x="164" y="90"/>
      <point x="164" y="236" type="curve" smooth="yes"/>
      <point x="164" y="257" type="line" smooth="yes"/>
      <point x="164" y="403"/>
      <point x="187" y="437"/>
      <point x="290" y="437" type="curve" smooth="yes"/>
      <point x="372" y="437"/>
      <point x="386" y="415"/>
      <point x="386" y="298" type="curve" smooth="yes"/>
      <point x="386" y="196" type="line" smooth="yes"/>
      <point x="386" y="78"/>
      <point x="372" y="57"/>
    </contour>
  </outline>
</glyph>
<glyph name="q" format="2">
  <advance width="524"/>
  <unicode hex="0071"/>
  <anchor x="310" y="0" name="bottom"/>
  <anchor x="386" y="-66" name="center"/>
  <anchor x="310" y="510" name="top"/>
  <outline>
    <contour>
      <point x="360" y="-200" type="line"/>
      <point x="436" y="-200" type="line"/>
      <point x="436" y="494" type="line"/>
      <point x="369" y="494" type="line"/>
      <point x="360" y="431" type="line"/>
      <point x="356" y="431" type="line"/>
      <point x="336" y="480"/>
      <point x="292" y="502"/>
      <point x="214" y="502" type="curve" smooth="yes"/>
      <point x="85" y="502"/>
      <point x="62" y="464"/>
      <point x="62" y="251" type="curve" smooth="yes"/>
      <point x="62" y="243" type="line" smooth="yes"/>
      <point x="62" y="29"/>
      <point x="85" y="-8"/>
      <point x="214" y="-8" type="curve" smooth="yes"/>
      <point x="292" y="-8"/>
      <point x="336" y="13"/>
      <point x="356" y="62" type="curve"/>
      <point x="360" y="62" type="line"/>
    </contour>
    <contour>
      <point x="234" y="57" type="curve" smooth="yes"/>
      <point x="152" y="57"/>
      <point x="138" y="78"/>
      <point x="138" y="196" type="curve" smooth="yes"/>
      <point x="138" y="298" type="line" smooth="yes"/>
      <point x="138" y="415"/>
      <point x="152" y="437"/>
      <point x="234" y="437" type="curve" smooth="yes"/>
      <point x="337" y="437"/>
      <point x="360" y="403"/>
      <point x="360" y="257" type="curve" smooth="yes"/>
      <point x="360" y="236" type="line" smooth="yes"/>
      <point x="360" y="90"/>
      <point x="337" y="57"/>
    </contour>
  </outline>
</glyph>
<glyph name="r" format="2">
  <advance width="342"/>
  <unicode hex="0072"/>
  <anchor x="174" y="0" name="bottom"/>
  <anchor x="174" y="495" name="top"/>
  <outline>
    <contour>
      <point x="88" y="0" type="line"/>
      <point x="164" y="0" type="line"/>
      <point x="164" y="291" type="line" smooth="yes"/>
      <point x="164" y="409"/>
      <point x="189" y="437"/>
      <point x="298" y="437" type="curve" smooth="yes"/>
      <point x="317" y="437" type="line"/>
      <point x="317" y="502" type="line"/>
      <point x="233" y="502"/>
      <point x="187" y="481"/>
      <point x="165" y="432" type="curve"/>
      <point x="161" y="432" type="line"/>
      <point x="153" y="495" type="line"/>
      <point x="88" y="495" type="line"/>
    </contour>
  </outline>
</glyph>
<glyph name="s" format="2">
  <advance width="433"/>
  <unicode hex="0073"/>
  <guideline x="156" y="224" angle="353.1183" name=""/>
  <anchor x="217" y="0" name="bottom"/>
  <anchor x="217" y="495" name="top"/>
  <outline>
    <contour>
      <point x="230" y="-8" type="curve" smooth="yes"/>
      <point x="345" y="-8"/>
      <point x="375" y="22"/>
      <point x="375" y="137" type="curve" smooth="yes"/>
      <point x="375" y="238"/>
      <point x="353" y="270"/>
      <point x="278" y="280" type="curve" smooth="yes"/>
      <point x="178" y="292" type="line" smooth="yes"/>
      <point x="138" y="296"/>
      <point x="134" y="303"/>
      <point x="134" y="364" type="curve" smooth="yes"/>
      <point x="134" y="426"/>
      <point x="146" y="437"/>
      <point x="212" y="437" type="curve" smooth="yes"/>
      <point x="257" y="437"/>
      <point x="314" y="433"/>
      <point x="356" y="426" type="curve"/>
      <point x="356" y="489" type="line"/>
      <point x="301" y="497"/>
      <point x="243" y="502"/>
      <point x="202" y="502" type="curve" smooth="yes"/>
      <point x="88" y="502"/>
      <point x="58" y="473"/>
      <point x="58" y="364" type="curve" smooth="yes"/>
      <point x="58" y="262"/>
      <point x="79" y="231"/>
      <point x="154" y="221" type="curve" smooth="yes"/>
      <point x="253" y="209" type="line" smooth="yes"/>
      <point x="296" y="204"/>
      <point x="299" y="200"/>
      <point x="299" y="138" type="curve" smooth="yes"/>
      <point x="299" y="70"/>
      <point x="286" y="57"/>
      <point x="217" y="57" type="curve" smooth="yes"/>
      <point x="173" y="57"/>
      <point x="108" y="60"/>
      <point x="63" y="67" type="curve"/>
      <point x="63" y="5" type="line"/>
      <point x="134" y="-4"/>
      <point x="199" y="-8"/>
    </contour>
  </outline>
</glyph>
<glyph name="t" format="2">
  <advance width="302"/>
  <unicode hex="0074"/>
  <anchor x="160" y="0" name="bottom"/>
  <anchor x="160" y="721" name="top"/>
  <outline>
    <contour>
      <point x="106" y="0" type="line"/>
      <point x="182" y="0" type="line"/>
      <point x="182" y="667" type="line"/>
      <point x="106" y="667" type="line"/>
    </contour>
    <contour>
      <point x="18" y="430" type="line"/>
      <point x="122" y="430" type="line"/>
      <point x="122" y="495" type="line"/>
      <point x="18" y="495" type="line"/>
    </contour>
    <contour>
      <point x="167" y="430" type="line"/>
      <point x="298" y="430" type="line"/>
      <point x="298" y="495" type="line"/>
      <point x="167" y="495" type="line"/>
    </contour>
  </outline>
</glyph>
<glyph name="u" format="2">
  <advance width="530"/>
  <unicode hex="0075"/>
  <anchor x="265" y="0" name="bottom"/>
  <anchor x="477" y="10" name="ogonek"/>
  <anchor x="265" y="510" name="top"/>
  <anchor x="510" y="510" name="topright"/>
  <outline>
    <contour>
      <point x="442" y="495" type="line"/>
      <point x="366" y="495" type="line"/>
      <point x="366" y="184" type="line" smooth="yes"/>
      <point x="366" y="84"/>
      <point x="342" y="58"/>
      <point x="249" y="58" type="curve" smooth="yes"/>
      <point x="174" y="58"/>
      <point x="160" y="73"/>
      <point x="160" y="156" type="curve" smooth="yes"/>
      <point x="160" y="495" type="line"/>
      <point x="84" y="495" type="line"/>
      <point x="84" y="145" type="line" smooth="yes"/>
      <point x="85" y="34"/>
      <point x="124" y="-7"/>
      <point x="225" y="-7" type="curve" smooth="yes"/>
      <point x="303" y="-7"/>
      <point x="347" y="13"/>
      <point x="366" y="55" type="curve"/>
      <point x="370" y="55" type="line"/>
      <point x="378" y="0" type="line"/>
      <point x="442" y="0" type="line"/>
    </contour>
  </outline>
</glyph>
<glyph name="v" format="2">
  <advance width="448"/>
  <unicode hex="0076"/>
  <anchor x="215" y="0" name="bottom"/>
  <anchor x="215" y="495" name="top"/>
  <outline>
    <contour>
      <point x="180" y="0" type="line"/>
      <point x="268" y="0" type="line"/>
      <point x="426" y="495" type="line"/>
      <point x="348" y="495" type="line"/>
      <point x="226" y="84" type="line"/>
      <point x="222" y="84" type="line"/>
      <point x="100" y="495" type="line"/>
      <point x="22" y="495" type="line"/>
    </contour>
  </outline>
</glyph>
<glyph name="w" format="2">
  <advance width="576"/>
  <unicode hex="0077"/>
  <anchor x="291" y="0" name="bottom"/>
  <anchor x="291" y="495" name="top"/>
  <outline>
    <contour>
      <point x="103" y="0" type="line"/>
      <point x="214" y="0" type="line"/>
      <point x="288" y="405" type="line"/>
      <point x="362" y="0" type="line"/>
      <point x="473" y="0" type="line"/>
      <point x="554" y="495" type="line"/>
      <point x="476" y="495" type="line"/>
      <point x="419" y="81" type="line"/>
      <point x="415" y="81" type="line"/>
      <point x="339" y="495" type="line"/>
      <point x="236" y="495" type="line"/>
      <point x="161" y="81" type="line"/>
      <point x="157" y="81" type="line"/>
      <point x="99" y="495" type="line"/>
      <point x="22" y="495" type="line"/>
    </contour>
  </outline>
</glyph>
<glyph name="x" format="2">
  <advance width="428"/>
  <unicode hex="0078"/>
  <anchor x="219" y="0" name="bottom"/>
  <anchor x="219" y="495" name="top"/>
  <outline>
    <contour>
      <point x="322" y="0" type="line"/>
      <point x="410" y="0" type="line"/>
      <point x="106" y="495" type="line"/>
      <point x="18" y="495" type="line"/>
    </contour>
    <contour>
      <point x="18" y="0" type="line"/>
      <point x="106" y="0" type="line"/>
      <point x="410" y="495" type="line"/>
      <point x="322" y="495" type="line"/>
    </contour>
  </outline>
</glyph>
<glyph name="y" format="2">
  <advance width="530"/>
  <unicode hex="0079"/>
  <anchor x="301" y="0" name="bottom"/>
  <anchor x="301" y="510" name="top"/>
  <outline>
    <contour>
      <point x="258" y="-202" type="curve" smooth="yes"/>
      <point x="413" y="-202"/>
      <point x="442" y="-164"/>
      <point x="442" y="32" type="curve" smooth="yes"/>
      <point x="442" y="495" type="line"/>
      <point x="366" y="495" type="line"/>
      <point x="366" y="184" type="line" smooth="yes"/>
      <point x="366" y="84"/>
      <point x="342" y="58"/>
      <point x="249" y="58" type="curve" smooth="yes"/>
      <point x="174" y="58"/>
      <point x="160" y="73"/>
      <point x="160" y="156" type="curve" smooth="yes"/>
      <point x="160" y="495" type="line"/>
      <point x="84" y="495" type="line"/>
      <point x="84" y="145" type="line" smooth="yes"/>
      <point x="85" y="34"/>
      <point x="124" y="-7"/>
      <point x="225" y="-7" type="curve" smooth="yes"/>
      <point x="301" y="-7"/>
      <point x="344" y="13"/>
      <point x="362" y="55" type="curve"/>
      <point x="366" y="55" type="line"/>
      <point x="366" y="15" type="line" smooth="yes"/>
      <point x="366" y="-126"/>
      <point x="358" y="-137"/>
      <point x="258" y="-137" type="curve" smooth="yes"/>
      <point x="198" y="-137"/>
      <point x="149" y="-133"/>
      <point x="104" y="-125" type="curve"/>
      <point x="104" y="-188" type="line"/>
      <point x="159" y="-197"/>
      <point x="209" y="-202"/>
    </contour>
  </outline>
</glyph>
<glyph name="z" format="2">
  <advance width="382"/>
  <unicode hex="007A"/>
  <anchor x="175" y="0" name="bottom"/>
  <anchor x="169" y="247" name="center"/>
  <anchor x="175" y="495" name="top"/>
  <outline>
    <contour>
      <point x="22" y="0" type="line"/>
      <point x="360" y="0" type="line"/>
      <point x="360" y="65" type="line"/>
      <point x="115" y="65" type="line"/>
      <point x="115" y="69" type="line"/>
      <point x="358" y="438" type="line"/>
      <point x="358" y="495" type="line"/>
      <point x="33" y="495" type="line"/>
      <point x="33" y="430" type="line"/>
      <point x="265" y="430" type="line"/>
      <point x="265" y="426" type="line"/>
      <point x="22" y="57" type="line"/>
    </contour>
  </outline>
</glyph>
<glyph name="bar" format="2">
  <advance width="328"/>
  <unicode hex="007C"/>
  <outline>
    <contour>
      <point x="123" y="-161" type="line"/>
      <point x="205" y="-161" type="line"/>
      <point x="205" y="743" type="line"/>
      <point x="123" y="743" type="line"/>
    </contour>
  </outline>
</glyph>
<glyph name="yen" format="2">
  <advance width="623.34783"/>
  <unicode hex="00A5"/>
  <outline>
    <contour>
      <point x="267.63" y="0" type="line"/>
      <point x="353.63" y="0" type="line"/>
      <point x="353.63" y="239.804" type="line"/>
      <point x="556.674" y="239.804" type="line"/>
      <point x="556.674" y="295" type="line"/>
      <point x="372.543" y="295" type="line"/>
      <point x="434.435" y="401.391" type="line"/>
      <point x="556.674" y="401.391" type="line"/>
      <point x="556.674" y="456.587" type="line"/>
      <point x="464.217" y="456.587" type="line"/>
      <point x="590.413" y="688" type="line"/>
      <point x="502.043" y="688" type="line"/>
      <point x="315.717" y="336.848" type="line"/>
      <point x="308.717" y="336.848" type="line"/>
      <point x="123.391" y="688" type="line"/>
      <point x="31.848" y="688" type="line"/>
      <point x="157.587" y="456.587" type="line"/>
      <point x="65.13" y="456.587" type="line"/>
      <point x="65.13" y="401.391" type="line"/>
      <point x="186.826" y="401.391" type="line"/>
      <point x="248.717" y="295" type="line"/>
      <point x="65.13" y="295" type="line"/>
      <point x="65.13" y="239.804" type="line"/>
      <point x="267.63" y="239.804" type="line"/>
    </contour>
  </outline>
</glyph>
<glyph name="dieresis" format="2">
  <advance width="283.43478"/>
  <unicode hex="00A8"/>
  <outline>
    <contour>
      <point x="0" y="627.717" type="line"/>
      <point x="76.696" y="627.717" type="line"/>
      <point x="76.696" y="708.283" type="line"/>
      <point x="0" y="708.283" type="line"/>
    </contour>
    <contour>
      <point x="206.739" y="627.717" type="line"/>
      <point x="283.435" y="627.717" type="line"/>
      <point x="283.435" y="708.283" type="line"/>
      <point x="206.739" y="708.283" type="line"/>
    </contour>
  </outline>
</glyph>
<glyph name="eth" format="2">
  <advance width="578.91304"/>
  <unicode hex="00F0"/>
  <outline>
    <contour>
      <point x="288.37" y="-8" type="curve" smooth="yes"/>
      <point x="503.717" y="-8"/>
      <point x="512.065" y="47.609"/>
      <point x="512.065" y="271.935" type="curve" smooth="yes"/>
      <point x="512.065" y="322.565"/>
      <point x="507.804" y="380"/>
      <point x="497.63" y="434.457" type="curve" smooth="yes"/>
      <point x="483.543" y="511.413"/>
      <point x="452.413" y="582.217"/>
      <point x="418.935" y="632.696" type="curve"/>
      <point x="490.326" y="645.065" type="line"/>
      <point x="490.326" y="700.435" type="line"/>
      <point x="382.717" y="682.435" type="line"/>
      <point x="357.783" y="711.652"/>
      <point x="334.674" y="731.022"/>
      <point x="320.783" y="743" type="curve"/>
      <point x="230.5" y="743" type="line"/>
      <point x="230.5" y="739" type="line"/>
      <point x="248.022" y="724.478"/>
      <point x="274.761" y="700.935"/>
      <point x="302.87" y="669.457" type="curve"/>
      <point x="221.261" y="656.261" type="line"/>
      <point x="221.261" y="600.348" type="line"/>
      <point x="339.457" y="619.717" type="line"/>
      <point x="363.478" y="585.696"/>
      <point x="385.413" y="543.565"/>
      <point x="402.609" y="493.783" type="curve"/>
      <point x="398.239" y="491.239" type="line"/>
      <point x="369.043" y="507.63"/>
      <point x="328.652" y="517.457"/>
      <point x="269.891" y="517.457" type="curve" smooth="yes"/>
      <point x="77.761" y="517.457"/>
      <point x="64.674" y="449.804"/>
      <point x="64.674" y="254" type="curve" smooth="yes"/>
      <point x="64.674" y="47.87"/>
      <point x="77.761" y="-8"/>
    </contour>
    <contour>
      <point x="288.37" y="60.413" type="curve" smooth="yes"/>
      <point x="146.413" y="60.413"/>
      <point x="146.413" y="85.63"/>
      <point x="146.413" y="254" type="curve" smooth="yes"/>
      <point x="146.413" y="422.37"/>
      <point x="146.413" y="449.043"/>
      <point x="288.37" y="449.043" type="curve" smooth="yes"/>
      <point x="430.87" y="449.043"/>
      <point x="430.87" y="397.043"/>
      <point x="430.87" y="254" type="curve" smooth="yes"/>
      <point x="430.87" y="85.63"/>
      <point x="430.87" y="60.413"/>
    </contour>
  </outline>
</glyph>
<glyph name="oslash" format="2">
  <advance width="576.73913"/>
  <unicode hex="00F8"/>
  <anchor x="288.37" y="510" name="top"/>
  <outline>
    <contour>
      <point x="437.652" y="443.63" type="line"/>
      <point x="511.609" y="565" type="line"/>
      <point x="444.261" y="565" type="line"/>
      <point x="386.739" y="470.5" type="line"/>
    </contour>
    <contour>
      <point x="65.13" y="-55" type="line"/>
      <point x="131.478" y="-55" type="line"/>
      <point x="186" y="34.5" type="line"/>
      <point x="137.174" y="64" type="line"/>
    </contour>
    <component base="o.002"/>
  </outline>
</glyph>
<glyph name="idotless" format="2">
  <advance width="252"/>
  <unicode hex="0131"/>
  <anchor x="126" y="0" name="bottom"/>
  <anchor x="167" y="0" name="ogonek"/>
  <anchor x="126" y="510" name="top"/>
  <outline>
    <contour>
      <point x="88" y="0" type="line"/>
      <point x="164" y="0" type="line"/>
      <point x="164" y="495" type="line"/>
      <point x="88" y="495" type="line"/>
    </contour>
  </outline>
</glyph>
<glyph name="Tbar" format="2">
  <advance width="580.91304"/>
  <unicode hex="0166"/>
  <outline>
    <contour>
      <point x="55.239" y="307.413" type="line"/>
      <point x="525.674" y="307.413" type="line"/>
      <point x="525.674" y="375.283" type="line"/>
      <point x="55.239" y="375.283" type="line"/>
    </contour>
    <component base="T"/>
  </outline>
</glyph>
<glyph name="ohorn" format="2">
  <advance width="576.73913"/>
  <unicode hex="01A1"/>
  <anchor x="352.717" y="510" name="_topright"/>
  <anchor x="288.37" y="0" name="bottom"/>
  <anchor x="288.37" y="510" name="top"/>
  <anchor x="352.717" y="604.196" name="topright"/>
  <outline>
    <contour>
      <point x="352.717" y="470.587" type="line"/>
      <point x="418.783" y="470.587" type="line" smooth="yes"/>
      <point x="516.217" y="470.587"/>
      <point x="533.848" y="493.848"/>
      <point x="533.848" y="580.543" type="curve" smooth="yes"/>
      <point x="533.848" y="604.196" type="line"/>
      <point x="474.761" y="604.196" type="line"/>
      <point x="474.761" y="573" type="line" smooth="yes"/>
      <point x="474.761" y="524"/>
      <point x="468.674" y="510"/>
      <point x="418.783" y="510" type="curve" smooth="yes"/>
      <point x="352.717" y="510" type="line"/>
    </contour>
    <component base="o.002"/>
  </outline>
</glyph>
<glyph name="jdotless" format="2">
  <advance width="252"/>
  <unicode hex="0237"/>
  <anchor x="126" y="-200" name="bottom"/>
  <anchor x="126" y="510" name="top"/>
  <outline>
    <contour>
      <point x="164" y="495" type="line"/>
      <point x="88" y="495" type="line"/>
      <point x="88" y="-59" type="line" smooth="yes"/>
      <point x="88" y="-123"/>
      <point x="69" y="-135"/>
      <point x="-28" y="-135" type="curve"/>
      <point x="-28" y="-200" type="line"/>
      <point x="122" y="-200"/>
      <point x="164" y="-168"/>
      <point x="164" y="-52" type="curve" smooth="yes"/>
    </contour>
  </outline>
</glyph>
<glyph name="dotaccent" format="2">
  <advance width="76.69565"/>
  <unicode hex="02D9"/>
  <outline>
    <contour>
      <point x="0" y="627.717" type="line"/>
      <point x="76.696" y="627.717" type="line"/>
      <point x="76.696" y="708.283" type="line"/>
      <point x="0" y="708.283" type="line"/>
    </contour>
  </outline>
</glyph>
<glyph name="dagger" format="2">
  <advance width="450.13043"/>
  <unicode hex="2020"/>
  <outline>
    <contour>
      <point x="198.978" y="0" type="line"/>
      <point x="251.152" y="0" type="line"/>
      <point x="258.239" y="449.152" type="line"/>
      <point x="394.152" y="456.239" type="line"/>
      <point x="394.152" y="507.413" type="line"/>
      <point x="258.239" y="515.043" type="line"/>
      <point x="251.152" y="688" type="line"/>
      <point x="198.978" y="688" type="line"/>
      <point x="191.348" y="515.043" type="line"/>
      <point x="55.978" y="507.413" type="line"/>
      <point x="55.978" y="456.239" type="line"/>
      <point x="191.348" y="449.152" type="line"/>
    </contour>
  </outline>
</glyph>
<glyph name="won" format="2">
  <advance width="987.26087"/>
  <unicode hex="20A9"/>
  <outline>
    <contour>
      <point x="31.478" y="308.457" type="line"/>
      <point x="954.783" y="308.457" type="line"/>
      <point x="954.783" y="361.739" type="line"/>
      <point x="31.478" y="361.739" type="line"/>
    </contour>
    <component base="W"/>
  </outline>
</glyph>
<glyph name="kip" format="2">
  <advance width="670.43478"/>
  <unicode hex="20AD"/>
  <outline>
    <contour>
      <point x="25.283" y="314.435" type="line"/>
      <point x="602.609" y="314.435" type="line"/>
      <point x="602.609" y="386.196" type="line"/>
      <point x="25.283" y="386.196" type="line"/>
    </contour>
    <component base="K"/>
  </outline>
</glyph>
<glyph name="manat" format="2">
  <advance width="708.30435"/>
  <unicode hex="20BC"/>
  <outline>
    <contour>
      <point x="91.413" y="0" type="line"/>
      <point x="177.413" y="0" type="line"/>
      <point x="177.413" y="420.739" type="line" smooth="yes"/>
      <point x="177.413" y="575.848"/>
      <point x="186.065" y="616.609"/>
      <point x="322.152" y="621.239" type="curve"/>
      <point x="322.152" y="0" type="line"/>
      <point x="386.413" y="0" type="line"/>
      <point x="386.413" y="621.239" type="line"/>
      <point x="523.239" y="616.065"/>
      <point x="530.348" y="575.761"/>
      <point x="530.348" y="420.739" type="curve" smooth="yes"/>
      <point x="530.348" y="0" type="line"/>
      <point x="616.348" y="0" type="line"/>
      <point x="616.348" y="401.174" type="line" smooth="yes"/>
      <point x="616.348" y="624.652"/>
      <point x="591.174" y="689.739"/>
      <point x="386.413" y="695.457" type="curve"/>
      <point x="386.413" y="771" type="line"/>
      <point x="322.152" y="771" type="line"/>
      <point x="322.152" y="695.457" type="line"/>
      <point x="118.13" y="689.826"/>
      <point x="91.413" y="624.739"/>
      <point x="91.413" y="401.174" type="curve" smooth="yes"/>
    </contour>
  </outline>
</glyph>
<glyph name="partialdiff" format="2">
  <advance width="577.28261"/>
  <unicode hex="2202"/>
  <outline>
    <contour>
      <point x="288.37" y="-8" type="curve" smooth="yes"/>
      <point x="503.717" y="-8"/>
      <point x="512.065" y="47.609"/>
      <point x="512.065" y="271.935" type="curve" smooth="yes"/>
      <point x="512.065" y="329.957"/>
      <point x="507.348" y="381.087"/>
      <point x="496.717" y="441.022" type="curve" smooth="yes"/>
      <point x="475.022" y="562.326"/>
      <point x="409.739" y="673.261"/>
      <point x="320.783" y="743" type="curve"/>
      <point x="230.5" y="743" type="line"/>
      <point x="230.5" y="739" type="line"/>
      <point x="314.739" y="671.239"/>
      <point x="367.891" y="595.217"/>
      <point x="402.609" y="493.783" type="curve"/>
      <point x="398.239" y="491.239" type="line"/>
      <point x="365.783" y="509.261"/>
      <point x="318.87" y="517.457"/>
      <point x="263.37" y="517.457" type="curve" smooth="yes"/>
      <point x="77.761" y="517.457"/>
      <point x="64.674" y="449.261"/>
      <point x="64.674" y="254" type="curve" smooth="yes"/>
      <point x="64.674" y="47.87"/>
      <point x="77.761" y="-8"/>
    </contour>
    <contour>
      <point x="288.37" y="60.413" type="curve" smooth="yes"/>
      <point x="146.413" y="60.413"/>
      <point x="146.413" y="85.63"/>
      <point x="146.413" y="254" type="curve" smooth="yes"/>
      <point x="146.413" y="422.37"/>
      <point x="146.413" y="449.043"/>
      <point x="288.37" y="449.043" type="curve" smooth="yes"/>
      <point x="430.87" y="449.043"/>
      <point x="430.87" y="397.043"/>
      <point x="430.87" y="254" type="curve" smooth="yes"/>
      <point x="430.87" y="85.63"/>
      <point x="430.87" y="60.413"/>
    </contour>
  </outline>
</glyph>
<glyph name="divisionslash" format="2">
  <advance width="353.82609"/>
  <unicode hex="2215"/>
  <outline>
    <contour>
      <point x="0" y="0" type="line"/>
      <point x="61.913" y="0" type="line"/>
      <point x="353.826" y="688" type="line"/>
      <point x="291.913" y="688" type="line"/>
    </contour>
  </outline>
</glyph>
<glyph name="radical" format="2">
  <advance width="615.91304"/>
  <unicode hex="221A"/>
  <outline>
    <contour>
      <point x="283.391" y="-106" type="line"/>
      <point x="371.304" y="-106" type="line"/>
      <point x="598.304" y="770" type="line"/>
      <point x="524.261" y="770" type="line"/>
      <point x="321.217" y="-17.783" type="line"/>
      <point x="148.804" y="330.957" type="line"/>
      <point x="28.913" y="276.826" type="line"/>
      <point x="47.435" y="228.435" type="line"/>
      <point x="104.174" y="253.804" type="line"/>
    </contour>
  </outline>
</glyph>
<glyph name="infinity" format="2">
  <advance width="1037"/>
  <unicode hex="221E"/>
  <outline>
    <contour>
      <point x="284" y="50.478" type="curve" smooth="yes"/>
      <point x="424.283" y="50.478"/>
      <point x="481" y="114.217"/>
      <point x="519" y="189.5" type="curve"/>
      <point x="557" y="114.217"/>
      <point x="613.717" y="50.478"/>
      <point x="755" y="50.478" type="curve" smooth="yes"/>
      <point x="935.804" y="50.478"/>
      <point x="972.978" y="123.652"/>
      <point x="972.978" y="256" type="curve" smooth="yes"/>
      <point x="972.978" y="386.804"/>
      <point x="935.804" y="461.522"/>
      <point x="755" y="461.522" type="curve" smooth="yes"/>
      <point x="613.717" y="461.522"/>
      <point x="557" y="396.239"/>
      <point x="519" y="322.5" type="curve"/>
      <point x="481" y="396.239"/>
      <point x="424.283" y="461.522"/>
      <point x="284" y="461.522" type="curve" smooth="yes"/>
      <point x="103.196" y="461.522"/>
      <point x="63.478" y="386.804"/>
      <point x="63.478" y="256" type="curve" smooth="yes"/>
      <point x="63.478" y="123.652"/>
      <point x="103.196" y="50.478"/>
    </contour>
    <contour>
      <point x="286.174" y="112.913" type="curve" smooth="yes"/>
      <point x="154.826" y="112.913"/>
      <point x="130" y="160.152"/>
      <point x="130" y="256" type="curve" smooth="yes"/>
      <point x="130" y="351.304"/>
      <point x="154.826" y="399.087"/>
      <point x="286.174" y="399.087" type="curve" smooth="yes"/>
      <point x="412.217" y="399.087"/>
      <point x="455.696" y="328.957"/>
      <point x="483.065" y="256" type="curve"/>
      <point x="455.696" y="183.043"/>
      <point x="412.217" y="112.913"/>
    </contour>
    <contour>
      <point x="752.826" y="112.913" type="curve" smooth="yes"/>
      <point x="626.239" y="112.913"/>
      <point x="581.761" y="183.043"/>
      <point x="555.935" y="256" type="curve"/>
      <point x="581.761" y="328.957"/>
      <point x="626.239" y="399.087"/>
      <point x="752.826" y="399.087" type="curve" smooth="yes"/>
      <point x="882.63" y="399.087"/>
      <point x="906.457" y="351.304"/>
      <point x="906.457" y="256" type="curve" smooth="yes"/>
      <point x="906.457" y="160.152"/>
      <point x="882.63" y="112.913"/>
    </contour>
  </outline>
</glyph>
<glyph name="lessequal" format="2">
  <advance width="541"/>
  <unicode hex="2264"/>
  <outline>
    <contour>
      <point x="470.457" y="174" type="line"/>
      <point x="470.457" y="243.609" type="line"/>
      <point x="136.935" y="382" type="line"/>
      <point x="470.457" y="519.848" type="line"/>
      <point x="470.457" y="590" type="line"/>
      <point x="70.457" y="421.043" type="line"/>
      <point x="70.457" y="342.413" type="line"/>
    </contour>
    <contour>
      <point x="70.457" y="0" type="line"/>
      <point x="470.457" y="0" type="line"/>
      <point x="470.457" y="66.239" type="line"/>
      <point x="70.457" y="66.239" type="line"/>
    </contour>
  </outline>
</glyph>
<glyph name="C.001" format="2">
  <advance width="606"/>
  <anchor x="284" y="0" name="bottom"/>
  <anchor x="284" y="688" name="top"/>
  <outline>
    <contour>
      <point x="354" y="-8" type="curve" smooth="yes"/>
      <point x="410" y="-8"/>
      <point x="476" y="-3"/>
      <point x="514" y="5" type="curve"/>
      <point x="514" y="76" type="line"/>
      <point x="477" y="70"/>
      <point x="414" y="66"/>
      <point x="354" y="66" type="curve" smooth="yes"/>
      <point x="171" y="66"/>
      <point x="158" y="83"/>
      <point x="158" y="310" type="curve" smooth="yes"/>
      <point x="158" y="378" type="line" smooth="yes"/>
      <point x="158" y="605"/>
      <point x="171" y="622"/>
      <point x="354" y="622" type="curve" smooth="yes"/>
      <point x="411" y="622"/>
      <point x="467" y="618"/>
      <point x="510" y="612" type="curve"/>
      <point x="510" y="681" type="line"/>
      <point x="473" y="690"/>
      <point x="408" y="696"/>
      <point x="354" y="696" type="curve" smooth="yes"/>
      <point x="118" y="696"/>
      <point x="76" y="644"/>
      <point x="76" y="349" type="curve" smooth="yes"/>
      <point x="76" y="339" type="line" smooth="yes"/>
      <point x="76" y="44"/>
      <point x="118" y="-8"/>
    </contour>
  </outline>
</glyph>
<glyph name="G.ss01" format="2">
  <advance width="693.1087"/>
  <anchor x="346.826" y="0" name="bottom"/>
  <anchor x="346.826" y="688" name="top"/>
  <outline>
    <contour>
      <point x="368.283" y="-8" type="curve" smooth="yes"/>
      <point x="612.783" y="-8"/>
      <point x="619.522" y="50.065"/>
      <point x="619.522" y="296.826" type="curve" smooth="yes"/>
      <point x="619.522" y="378.109" type="line"/>
      <point x="377.5" y="378.109" type="line"/>
      <point x="377.5" y="305.522" type="line"/>
      <point x="534.065" y="305.522" type="line"/>
      <point x="534.065" y="280.348" type="line" smooth="yes"/>
      <point x="534.065" y="84.152"/>
      <point x="526.326" y="65.674"/>
      <point x="364.478" y="65.674" type="curve" smooth="yes"/>
      <point x="188.413" y="65.674"/>
      <point x="162.413" y="94.804"/>
      <point x="162.413" y="344" type="curve" smooth="yes"/>
      <point x="162.413" y="618.239"/>
      <point x="203.543" y="621.783"/>
      <point x="418.696" y="621.783" type="curve" smooth="yes"/>
      <point x="457.804" y="621.783"/>
      <point x="529.913" y="615.326"/>
      <point x="594.891" y="606.326" type="curve"/>
      <point x="594.891" y="675.826" type="line"/>
      <point x="534.739" y="687.457"/>
      <point x="444.109" y="696"/>
      <point x="376.196" y="696" type="curve" smooth="yes"/>
      <point x="130.217" y="696"/>
      <point x="76.413" y="639.065"/>
      <point x="76.413" y="344" type="curve" smooth="yes"/>
      <point x="76.413" y="48.935"/>
      <point x="120.87" y="-8"/>
    </contour>
  </outline>
</glyph>
<glyph name="M.001" format="2">
  <advance width="806"/>
  <anchor x="403" y="0" name="bottom"/>
  <anchor x="403" y="688" name="top"/>
  <outline>
    <contour>
      <point x="90" y="0" type="line"/>
      <point x="172" y="0" type="line"/>
      <point x="172" y="568" type="line"/>
      <point x="176" y="568" type="line"/>
      <point x="364" y="0" type="line"/>
      <point x="442" y="0" type="line"/>
      <point x="630" y="568" type="line"/>
      <point x="634" y="568" type="line"/>
      <point x="634" y="0" type="line"/>
      <point x="716" y="0" type="line"/>
      <point x="716" y="688" type="line"/>
      <point x="590" y="688" type="line"/>
      <point x="405" y="120" type="line"/>
      <point x="401" y="120" type="line"/>
      <point x="216" y="688" type="line"/>
      <point x="90" y="688" type="line"/>
    </contour>
  </outline>
</glyph>
<glyph name="Z.001" format="2">
  <advance width="506"/>
  <anchor x="253" y="0" name="bottom"/>
  <anchor x="253" y="344" name="center"/>
  <anchor x="253" y="688" name="top"/>
  <outline>
    <contour>
      <point x="44" y="0" type="line"/>
      <point x="462" y="0" type="line"/>
      <point x="462" y="68" type="line"/>
      <point x="139" y="68" type="line"/>
      <point x="457" y="629" type="line"/>
      <point x="457" y="688" type="line"/>
      <point x="53" y="688" type="line"/>
      <point x="53" y="620" type="line"/>
      <point x="362" y="620" type="line"/>
      <point x="44" y="59" type="line"/>
    </contour>
  </outline>
</glyph>
<glyph name=".notdef" format="2">
  <advance width="500"/>
  <outline>
    <contour>
      <point x="0" y="0" type="line"/>
      <point x="500" y="0" type="line"/>
      <point x="500" y="700" type="line"/>
      <point x="0" y="700" type="line"/>
    </contour>
    <contour>
      <point x="225" y="99" type="line"/>
      <point x="285" y="99" type="line"/>
      <point x="285" y="169" type="line"/>
      <point x="225" y="169" type="line"/>
    </contour>
    <contour>
      <point x="50" y="50" type="line"/>
      <point x="50" y="650" type="line"/>
      <point x="450" y="650" type="line"/>
      <point x="450" y="50" type="line"/>
    </contour>
    <contour>
      <point x="229" y="215" type="line"/>
      <point x="282" y="215" type="line"/>
      <point x="282" y="268" type="line" smooth="yes"/>
      <point x="282" y="301"/>
      <point x="303" y="319"/>
      <point x="326" y="338" type="curve" smooth="yes"/>
      <point x="356" y="364"/>
      <point x="393" y="400"/>
      <point x="393" y="467" type="curve" smooth="yes"/>
      <point x="393" y="479"/>
      <point x="390" y="602"/>
      <point x="250" y="602" type="curve" smooth="yes"/>
      <point x="110" y="602"/>
      <point x="99" y="478"/>
      <point x="99" y="455" type="curve" smooth="yes"/>
      <point x="99" y="443.457"/>
      <point x="101" y="430.457"/>
      <point x="103" y="424" type="curve"/>
      <point x="152" y="424" type="line"/>
      <point x="152" y="452" type="line" smooth="yes"/>
      <point x="152" y="475"/>
      <point x="160" y="552"/>
      <point x="250" y="552" type="curve" smooth="yes"/>
      <point x="327" y="552"/>
      <point x="339" y="493"/>
      <point x="339" y="465" type="curve" smooth="yes"/>
      <point x="339" y="414"/>
      <point x="311" y="390"/>
      <point x="283" y="367" type="curve" smooth="yes"/>
      <point x="255" y="344"/>
      <point x="229" y="321"/>
      <point x="229" y="278" type="curve" smooth="yes"/>
    </contour>
  </outline>
</glyph>
<glyph name="a.001" format="2">
  <advance width="539"/>
  <anchor x="274" y="0" name="bottom"/>
  <anchor x="508" y="10" name="ogonek"/>
  <anchor x="274" y="510" name="top"/>
  <outline>
    <contour>
      <point x="227" y="-8" type="curve" smooth="yes"/>
      <point x="316" y="-8"/>
      <point x="366" y="17"/>
      <point x="389" y="73" type="curve"/>
      <point x="393" y="73" type="line"/>
      <point x="402" y="0" type="line"/>
      <point x="472" y="0" type="line"/>
      <point x="472" y="259" type="line" smooth="yes"/>
      <point x="472" y="479"/>
      <point x="440" y="518"/>
      <point x="257" y="518" type="curve" smooth="yes"/>
      <point x="199" y="518"/>
      <point x="139" y="513"/>
      <point x="70" y="503" type="curve"/>
      <point x="70" y="435" type="line"/>
      <point x="127" y="444"/>
      <point x="186" y="448"/>
      <point x="257" y="448" type="curve" smooth="yes"/>
      <point x="381" y="448"/>
      <point x="390" y="436"/>
      <point x="390" y="279" type="curve" smooth="yes"/>
      <point x="390" y="244" type="line" smooth="yes"/>
      <point x="390" y="102"/>
      <point x="357" y="62"/>
      <point x="239" y="62" type="curve" smooth="yes"/>
      <point x="148" y="62"/>
      <point x="126" y="79"/>
      <point x="126" y="149" type="curve" smooth="yes"/>
      <point x="126" y="219"/>
      <point x="148" y="235"/>
      <point x="239" y="235" type="curve" smooth="yes"/>
      <point x="414" y="235" type="line"/>
      <point x="414" y="305" type="line"/>
      <point x="227" y="305" type="line" smooth="yes"/>
      <point x="91" y="305"/>
      <point x="44" y="265"/>
      <point x="44" y="149" type="curve" smooth="yes"/>
      <point x="44" y="33"/>
      <point x="91" y="-8"/>
    </contour>
  </outline>
</glyph>
<glyph name="bracketleft.ss02" format="2">
  <advance width="397"/>
  <outline>
    <contour>
      <point x="45" y="0" type="line"/>
      <point x="397" y="0" type="line"/>
      <point x="397" y="696" type="line"/>
      <point x="190" y="696"/>
      <point x="45" y="553"/>
      <point x="45" y="348" type="curve" smooth="yes"/>
    </contour>
  </outline>
</glyph>
<glyph name="brevecomb_gravecomb" format="2">
  <advance width="278.73913"/>
  <anchor x="141.5" y="510" name="_top"/>
  <anchor x="143.5" y="855.283" name="top"/>
  <outline>
    <contour>
      <point x="139.957" y="586.13" type="curve" smooth="yes"/>
      <point x="270.674" y="586.13"/>
      <point x="278.739" y="646.217"/>
      <point x="278.739" y="730.391" type="curve"/>
      <point x="225.457" y="730.391" type="line"/>
      <point x="225.457" y="670.065"/>
      <point x="223.457" y="637.5"/>
      <point x="139.957" y="637.5" type="curve" smooth="yes"/>
      <point x="56.457" y="637.5"/>
      <point x="56" y="670.065"/>
      <point x="56" y="730.391" type="curve"/>
      <point x="3.261" y="730.391" type="line"/>
      <point x="3.261" y="646.217"/>
      <point x="9.783" y="586.13"/>
    </contour>
    <contour>
      <point x="139.674" y="766.87" type="line"/>
      <point x="199.826" y="766.87" type="line"/>
      <point x="199.826" y="771.87" type="line"/>
      <point x="98.804" y="907.13" type="line"/>
      <point x="10.957" y="907.13" type="line"/>
      <point x="10.957" y="902.13" type="line"/>
    </contour>
  </outline>
</glyph>
<glyph name="c.001" format="2">
  <advance width="419"/>
  <anchor x="210" y="0" name="bottom"/>
  <anchor x="210" y="546" name="top"/>
  <outline>
    <contour>
      <point x="256" y="-9" type="curve" smooth="yes"/>
      <point x="301" y="-9"/>
      <point x="352" y="-2"/>
      <point x="381" y="6" type="curve"/>
      <point x="381" y="69" type="line"/>
      <point x="348" y="61"/>
      <point x="294" y="56"/>
      <point x="251" y="56" type="curve" smooth="yes"/>
      <point x="144" y="56"/>
      <point x="135" y="71"/>
      <point x="135" y="247" type="curve" smooth="yes"/>
      <point x="135" y="299" type="line" smooth="yes"/>
      <point x="135" y="475"/>
      <point x="144" y="490"/>
      <point x="251" y="490" type="curve" smooth="yes"/>
      <point x="292" y="490"/>
      <point x="344" y="485"/>
      <point x="376" y="476" type="curve"/>
      <point x="376" y="539" type="line"/>
      <point x="348" y="548"/>
      <point x="299" y="554"/>
      <point x="256" y="554" type="curve" smooth="yes"/>
      <point x="92" y="554"/>
      <point x="63" y="513"/>
      <point x="63" y="277" type="curve" smooth="yes"/>
      <point x="63" y="269" type="line" smooth="yes"/>
      <point x="63" y="33"/>
      <point x="92" y="-9"/>
    </contour>
  </outline>
</glyph>
<glyph name="c.002" format="2">
  <advance width="419"/>
  <anchor x="210" y="0" name="bottom"/>
  <anchor x="210" y="495" name="top"/>
  <outline>
    <contour>
      <point x="260" y="-8" type="curve" smooth="yes"/>
      <point x="303" y="-8"/>
      <point x="353" y="-2"/>
      <point x="381" y="6" type="curve"/>
      <point x="381" y="70" type="line"/>
      <point x="348" y="62"/>
      <point x="297" y="58"/>
      <point x="255" y="58" type="curve" smooth="yes"/>
      <point x="150" y="58"/>
      <point x="143" y="70"/>
      <point x="143" y="224" type="curve" smooth="yes"/>
      <point x="143" y="271" type="line" smooth="yes"/>
      <point x="143" y="424"/>
      <point x="150" y="436"/>
      <point x="255" y="436" type="curve" smooth="yes"/>
      <point x="295" y="436"/>
      <point x="344" y="432"/>
      <point x="376" y="424" type="curve"/>
      <point x="376" y="489" type="line"/>
      <point x="349" y="497"/>
      <point x="301" y="502"/>
      <point x="260" y="502" type="curve" smooth="yes"/>
      <point x="93" y="502"/>
      <point x="63" y="465"/>
      <point x="63" y="251" type="curve" smooth="yes"/>
      <point x="63" y="243" type="line" smooth="yes"/>
      <point x="63" y="30"/>
      <point x="93" y="-8"/>
    </contour>
  </outline>
</glyph>
<glyph name="c.004" format="2">
  <advance width="401"/>
  <anchor x="201" y="0" name="bottom"/>
  <anchor x="201" y="495" name="top"/>
  <outline>
    <contour>
      <point x="249" y="-8" type="curve" smooth="yes"/>
      <point x="290" y="-8"/>
      <point x="338" y="-2"/>
      <point x="364" y="5" type="curve"/>
      <point x="364" y="69" type="line"/>
      <point x="335" y="62"/>
      <point x="284" y="57"/>
      <point x="244" y="57" type="curve" smooth="yes"/>
      <point x="146" y="57"/>
      <point x="138" y="70"/>
      <point x="138" y="224" type="curve" smooth="yes"/>
      <point x="138" y="271" type="line" smooth="yes"/>
      <point x="138" y="425"/>
      <point x="146" y="437"/>
      <point x="244" y="437" type="curve" smooth="yes"/>
      <point x="282" y="437"/>
      <point x="331" y="433"/>
      <point x="359" y="426" type="curve"/>
      <point x="359" y="489" type="line"/>
      <point x="334" y="497"/>
      <point x="288" y="502"/>
      <point x="249" y="502" type="curve" smooth="yes"/>
      <point x="90" y="502"/>
      <point x="62" y="465"/>
      <point x="62" y="251" type="curve" smooth="yes"/>
      <point x="62" y="243" type="line" smooth="yes"/>
      <point x="62" y="30"/>
      <point x="90" y="-8"/>
    </contour>
  </outline>
</glyph>
<glyph name="circumflexcomb_acutecomb" format="2">
  <advance width="289.34783"/>
  <anchor x="144.674" y="510" name="_top"/>
  <anchor x="144.674" y="861" name="top"/>
  <outline>
    <contour>
      <point x="0" y="594.587" type="line"/>
      <point x="55.804" y="594.587" type="line"/>
      <point x="144.13" y="691.174" type="line"/>
      <point x="233" y="594.587" type="line"/>
      <point x="289.348" y="594.587" type="line"/>
      <point x="289.348" y="600.674" type="line"/>
      <point x="187.239" y="735.304" type="line"/>
      <point x="101.565" y="735.304" type="line"/>
      <point x="0" y="600.674" type="line"/>
    </contour>
    <contour>
      <point x="68.478" y="772.587" type="line"/>
      <point x="128.63" y="772.587" type="line"/>
      <point x="257.348" y="908.304" type="line"/>
      <point x="257.348" y="913.304" type="line"/>
      <point x="169.5" y="913.304" type="line"/>
      <point x="68.478" y="777.587" type="line"/>
    </contour>
  </outline>
</glyph>
<glyph name="four.ss01" format="2">
  <advance width="642.34783"/>
  <outline>
    <contour>
      <point x="409.196" y="0" type="line"/>
      <point x="495.196" y="0" type="line"/>
      <point x="495.196" y="160.239" type="line"/>
      <point x="596.587" y="160.239" type="line"/>
      <point x="596.587" y="235.543" type="line"/>
      <point x="495.196" y="235.543" type="line"/>
      <point x="495.196" y="688" type="line"/>
      <point x="380.022" y="688" type="line"/>
      <point x="46.391" y="229.283" type="line"/>
      <point x="46.391" y="160.239" type="line"/>
      <point x="409.196" y="160.239" type="line"/>
    </contour>
    <contour>
      <point x="135.957" y="235.543" type="line"/>
      <point x="408.848" y="605.761" type="line"/>
      <point x="409.652" y="605.761" type="line"/>
      <point x="409.652" y="235.543" type="line"/>
    </contour>
  </outline>
</glyph>
<glyph name="seven.tosf" format="2">
  <advance width="620"/>
  <outline>
    <contour>
      <point x="175.804" y="0" type="line"/>
      <point x="267.435" y="0" type="line"/>
      <point x="535.957" y="523.304" type="line"/>
      <point x="535.957" y="585" type="line"/>
      <point x="70.739" y="585" type="line"/>
      <point x="70.739" y="516.13" type="line"/>
      <point x="446.043" y="516.13" type="line"/>
    </contour>
  </outline>
</glyph>
<glyph name="three.numr" format="2">
  <advance width="350.91304"/>
  <outline>
    <contour>
      <point x="154.543" y="304" type="curve" smooth="yes"/>
      <point x="280.63" y="304"/>
      <point x="307.717" y="340.087"/>
      <point x="307.717" y="408.543" type="curve" smooth="yes"/>
      <point x="307.717" y="470.543"/>
      <point x="280.804" y="491.457"/>
      <point x="235.804" y="499.543" type="curve"/>
      <point x="235.804" y="501.543" type="line"/>
      <point x="279.348" y="511.087"/>
      <point x="303.261" y="535.543"/>
      <point x="303.261" y="591.087" type="curve" smooth="yes"/>
      <point x="303.261" y="661.913"/>
      <point x="267.717" y="690.087"/>
      <point x="155.543" y="690.087" type="curve" smooth="yes"/>
      <point x="120" y="690.087"/>
      <point x="69.37" y="685.543"/>
      <point x="36.826" y="680.543" type="curve"/>
      <point x="36.826" y="634.326" type="line"/>
      <point x="69.283" y="638.326"/>
      <point x="112.283" y="640.326"/>
      <point x="142.37" y="640.326" type="curve" smooth="yes"/>
      <point x="215.5" y="640.326"/>
      <point x="242.804" y="634.5"/>
      <point x="242.804" y="582.283" type="curve" smooth="yes"/>
      <point x="242.804" y="532.978"/>
      <point x="213.13" y="523.152"/>
      <point x="175.304" y="523.152" type="curve" smooth="yes"/>
      <point x="100.739" y="523.152" type="line"/>
      <point x="100.739" y="474.935" type="line"/>
      <point x="175.304" y="474.935" type="line" smooth="yes"/>
      <point x="227.152" y="474.935"/>
      <point x="246.261" y="460.826"/>
      <point x="246.261" y="412.348" type="curve" smooth="yes"/>
      <point x="246.261" y="358.13"/>
      <point x="213.043" y="352.761"/>
      <point x="147.826" y="352.761" type="curve" smooth="yes"/>
      <point x="120.826" y="352.761"/>
      <point x="73.826" y="355.761"/>
      <point x="34.826" y="358.761" type="curve"/>
      <point x="34.826" y="313.087" type="line"/>
      <point x="68.913" y="307.543"/>
      <point x="119.457" y="304"/>
    </contour>
  </outline>
</glyph>
<glyph name="zero.tosf" format="2">
  <advance width="620"/>
  <outline>
    <contour>
      <point x="310.543" y="-7" type="curve" smooth="yes"/>
      <point x="536.978" y="-7"/>
      <point x="545.783" y="37.696"/>
      <point x="545.783" y="292" type="curve" smooth="yes"/>
      <point x="545.783" y="547.304"/>
      <point x="536.978" y="592"/>
      <point x="310.543" y="592" type="curve" smooth="yes"/>
      <point x="84.565" y="592"/>
      <point x="75.217" y="547.848"/>
      <point x="75.217" y="292" type="curve" smooth="yes"/>
      <point x="75.217" y="37.152"/>
      <point x="84.565" y="-7"/>
    </contour>
    <contour>
      <point x="310.543" y="61.326" type="curve" smooth="yes"/>
      <point x="163.957" y="61.326"/>
      <point x="158.043" y="66.783"/>
      <point x="158.043" y="292" type="curve" smooth="yes"/>
      <point x="158.043" y="518.217"/>
      <point x="163.957" y="523.674"/>
      <point x="310.543" y="523.674" type="curve" smooth="yes"/>
      <point x="457.043" y="523.674"/>
      <point x="462.957" y="518.217"/>
      <point x="462.957" y="292" type="curve" smooth="yes"/>
      <point x="462.957" y="67.326"/>
      <point x="457.587" y="61.326"/>
    </contour>
  </outline>
</glyph>
